<?xml version="1.0" encoding="utf-8"?>
<!DOCTYPE svg PUBLIC "-//W3C//DTD SVG 1.0//EN" "http://www.w3.org/TR/2001/REC-SVG-20010904/DTD/svg10.dtd">
<svg version="1.0" xmlns="http://www.w3.org/2000/svg" width="137px" height="114px" viewBox="0 0 137 114" preserveAspectRatio="xMidYMid meet">
 <g fill="#1d3746">
  <path d="M48.5 107.6 c-10.2 -2 -16.6 -4.7 -23.4 -10.1 -5.6 -4.4 -10.8 -11 -13.7 -17.5 -1.6 -3.7 0 -13.6 3.7 -22.8 3.1 -7.7 3.1 -7.7 1.7 -15.2 -0.7 -4.1 -1.3 -11.4 -1.3 -16.1 0 -10.6 1.4 -12.9 8 -12.9 4.2 0 8.7 1.9 18 7.8 5 3.1 5 3.1 10.5 1.7 3.1 -0.9 10.1 -1.5 16.5 -1.5 6 0 11.5 -0.4 12 -0.8 0.6 -0.4 2.6 -2.6 4.4 -5 4.1 -5.2 8.1 -7.4 12.8 -7 5.9 0.5 7.4 3.7 8.5 17 1.2 14.8 1.1 14.7 5.7 20.4 2.1 2.7 5.4 7.8 7.2 11.3 2.8 5.4 3.4 7.5 3.3 12.5 0 9.5 -1.1 13 -6 19.6 -4.9 6.7 -14 13.3 -20.8 15.1 -2.3 0.6 -5.7 1.7 -7.6 2.4 -3.9 1.5 -3.1 1.4 -20 2 -8.1 0.3 -15 -0.1 -19.5 -0.9z m29.1 -9.1 c11.7 -2.2 19.7 -5.2 24 -8.9 3.7 -3.2 3.7 -3.2 -2.5 -5.5 -3.4 -1.3 -6.4 -2.8 -6.7 -3.2 -1.2 -2 -2.4 -0.7 -2.4 2.5 0 2.2 -0.9 4.5 -2.2 6.1 -2.2 2.4 -2.9 2.6 -12.4 2.8 -12.3 0.2 -14.4 -0.9 -14.4 -8 0 -4.1 0.1 -4.3 3 -4.3 2.7 0 3 -0.3 3 -3 0 -3.9 3.2 -5.3 11.6 -4.8 6.1 0.3 6.1 0.3 5.7 -3.4 -0.8 -5.4 0.5 -10.7 3.2 -13.4 2.1 -2.1 3.3 -2.4 9.9 -2.4 7.5 0 7.5 0 4.2 -4.9 -3 -4.4 -3.3 -5.8 -3.9 -14.7 -0.8 -11.1 -1.5 -14.6 -2.8 -13.8 -0.5 0.3 -2.5 3 -4.5 6.1 -3.6 5.6 -3.6 5.6 -13.2 4.8 -13 -1 -16.1 -0.8 -23.4 1.5 -9.8 3.1 -11.6 2.7 -20.9 -3.6 -4.5 -3 -8.3 -5.3 -8.6 -5 -0.3 0.3 0.1 4.4 0.8 9.3 0.8 4.8 1.4 12.5 1.4 16.9 0 8.2 0 8.2 4.5 6.8 6.1 -1.9 21.3 -1.8 24.9 0.1 5.8 2.9 7.7 12.3 4.2 20.2 -2.1 4.6 -7.2 8.7 -16.6 13.6 -6 3 -6 3 -1.6 4.9 10 4.5 23.3 5.7 35.7 3.3z m9.4 -22.5 c-0.6 -1.1 -1.3 -2 -1.5 -2 -0.3 0 -0.5 0.9 -0.5 2 0 1.1 0.7 2 1.5 2 1.3 0 1.4 -0.4 0.5 -2z"/>
 </g>
 <g fill="#fcfcfc">
  <path d="M49.9 101.5 c-6.3 -1.3 -16 -4.8 -18.6 -6.8 -1.9 -1.4 -0.9 -2.3 8.5 -7.2 11.3 -5.8 15.6 -9.5 17.7 -14.9 1.6 -4.1 1.6 -4.6 0 -8 -2.3 -4.8 -6 -6.6 -13.2 -6.6 -6.6 0 -12.7 1.7 -20.1 5.4 -6 3 -6.3 2.5 -2.7 -5.2 1.4 -3 2.5 -6.2 2.5 -7.3 0 -2.2 6.3 -5.3 14.2 -7 6.4 -1.4 19.9 -0.6 28.3 1.6 6 1.6 6 1.6 11.5 -1.1 5.9 -3 13.3 -4 20.2 -3 4 0.6 4.7 1.2 9.6 8.4 2.8 4.2 5.2 8.2 5.2 8.9 0 0.7 -1.7 0.5 -5 -0.8 -6.1 -2.3 -13.7 -2.5 -16.7 -0.4 -1.3 0.9 -2.8 3.3 -3.4 5.4 -2.2 7.5 2.9 13.7 15.6 18.7 3.9 1.5 7.4 3 7.8 3.4 0.4 0.4 -1.7 3 -4.7 5.8 -4 3.5 -7.4 5.6 -11.9 7.1 -14.8 5 -31.3 6.3 -44.8 3.6z m33.9 -13.8 c0.7 -0.6 1.8 -1.9 2.3 -3 1.4 -2.5 -0.3 -4.4 -2.1 -2.2 -1.1 1.3 -5 2.2 -5 1.1 0 -0.2 0.7 -2 1.5 -4.1 1.5 -3.5 1.5 -3.7 -0.4 -4.2 -1.1 -0.3 -1.7 -1.1 -1.4 -1.9 0.8 -2.1 -4.1 -2.8 -7.4 -1 -2.8 1.5 -2.8 1.6 -0.5 2.2 2.1 0.6 2.1 0.7 0.5 1.9 -1.6 1.2 -1.6 1.5 0 4.6 1.5 3.2 1.5 3.4 -0.3 3.7 -1 0.2 -2.9 -0.2 -4 -0.8 -2.6 -1.4 -3.8 -0.5 -2.4 1.8 2 3.1 5.5 4.2 11.9 3.5 3.3 -0.3 6.6 -1 7.3 -1.6z"/>
 </g>
 <g fill="#b7c5c5">
  <path d="M23.8 51.6 c0.2 -1.9 -0.1 -5.8 -0.7 -8.7 -1.9 -8.6 -2.6 -22.5 -1.2 -23.3 2.1 -1.3 5.8 0.2 14.1 5.9 8.1 5.5 8.1 5.5 15.2 3.4 7.8 -2.4 15.8 -2.9 26 -1.5 6.7 0.8 6.7 0.8 10.2 -4.7 3.5 -5.5 6.9 -8.7 9.2 -8.7 1.9 0 3.3 5.6 4 15.9 0.4 6.7 1.2 10.6 2.6 13 1.9 3.4 1.9 3.4 -2.4 2.5 -8.6 -1.7 -13.9 -1.1 -20.7 2.4 -6.4 3.3 -6.4 3.3 -14.5 1.3 -11.4 -2.9 -18.4 -3.5 -24.5 -2.2 -5.7 1.2 -13.7 4.5 -16.1 6.7 -1.4 1.2 -1.5 0.9 -1.2 -2z"/>
 </g>
 <g fill="#f49f76">
  <path d="M65.8 76.6 c-6.4 -4.8 7.2 -11.3 15.7 -7.4 2.5 1.1 3 2.4 1.9 5.1 -0.4 1.1 -1.6 1.4 -4.4 1 -2.4 -0.4 -5 0 -7.1 1.1 -3.8 1.9 -3.9 1.9 -6.1 0.2z"/>
 </g>
</svg>